<svg width="61" height="61" viewBox="0 0 61 61" fill="none" xmlns="http://www.w3.org/2000/svg">
<g clip-path="url(#clip0_6_7)">
<path d="M30.5 61C47.3447 61 61 47.3447 61 30.5C61 13.6553 47.3447 0 30.5 0C13.6553 0 0 13.6553 0 30.5C0 47.3447 13.6553 61 30.5 61Z" fill="#D9442C"/>
<path d="M50.9398 30.1648L50.9238 30.1967L50.9398 30.2127C51.0356 30.3085 51.0356 30.4362 51.0356 30.548C51.0675 31.9373 50.9398 33.3106 50.4927 34.6519C50.4448 34.7637 50.3968 34.8755 50.3649 35.0032C50.317 35.1629 50.2372 35.3066 50.1893 35.4504C49.9817 35.9773 49.7421 36.5043 49.4228 36.9833C49.311 37.159 49.1832 37.3347 49.0874 37.5263C49.0714 37.5582 49.0555 37.5742 49.0395 37.6061C49.0076 37.6381 48.9916 37.686 48.9597 37.7179C48.4646 38.3886 47.9377 39.0114 47.3468 39.5862C47.2989 39.6341 47.2351 39.682 47.1712 39.7299C46.8358 40.0333 46.4845 40.3048 46.1173 40.5922C45.9416 40.6881 45.7819 40.8158 45.6222 40.9436C44.8557 41.4226 44.0733 41.8378 43.2269 42.1412C42.9235 42.221 42.6361 42.3009 42.3487 42.4127C41.7898 42.5085 41.2468 42.6841 40.672 42.7001C37.111 42.8438 33.55 42.732 29.973 42.764C29.7495 42.764 29.5259 42.7959 29.3343 42.6522C29.1746 42.5085 29.1746 42.3169 29.1746 42.1412C29.1746 41.5983 29.1906 41.0553 29.1906 40.5124C29.1906 40.3208 29.1906 40.1292 29.1906 39.9535C29.1906 39.4265 29.1906 38.8996 29.1906 38.3726C29.2065 35.2268 29.1746 32.081 29.1906 28.9192C29.1746 28.6957 29.2225 28.4561 29.1586 28.2326C29.0468 27.0669 28.7115 25.981 28.1047 24.9909C28.0408 24.8951 27.9929 24.7993 27.929 24.7195C27.8971 24.6875 27.8652 24.6396 27.8492 24.6077C27.8013 24.4959 27.7374 24.3841 27.6416 24.2883C27.5937 24.2404 27.5458 24.1925 27.5139 24.1286C27.4819 24.0488 27.434 23.9849 27.3861 23.921C27.2743 23.8093 27.1466 23.7135 27.0508 23.5857C26.3162 22.7394 25.4699 22.0527 24.4479 21.6056C24.368 21.5896 24.2882 21.5737 24.2243 21.5258C24.0327 21.3661 23.7932 21.3182 23.5696 21.2383C22.9788 21.0467 22.3879 20.903 21.7652 20.871C21.7332 20.871 21.6853 20.8551 21.6534 20.8551C21.1105 20.8072 20.5675 20.8072 20.0086 20.8551C19.9447 20.871 19.8649 20.887 19.7851 20.887C19.5455 20.8391 19.3539 20.9828 19.1304 21.0148C19.0665 21.0148 19.0026 21.0148 18.9387 21.0148C18.779 21.0148 18.6353 21.0627 18.4916 21.0946C18.4597 21.1106 18.4277 21.1106 18.4118 21.1265C18.284 21.1585 18.1563 21.2064 18.0285 21.2543C17.9008 21.2862 17.789 21.3501 17.6612 21.398C17.5654 21.4299 17.4696 21.4778 17.3738 21.5258C17.1982 21.6056 17.0225 21.7014 16.8468 21.7813C16.5275 21.909 16.256 22.1326 15.9686 22.3402C15.9526 22.3561 15.9207 22.3721 15.8887 22.3881C15.6173 22.5797 15.3618 22.8032 15.1222 23.0428C15.1063 23.0587 15.0743 23.0747 15.0584 23.0907C15.0105 23.1226 14.9785 23.1705 14.9306 23.2025C14.8987 23.2344 14.8827 23.2663 14.8508 23.2983C14.755 23.3781 14.6591 23.4739 14.5793 23.5697C14.5633 23.5857 14.5474 23.6176 14.5154 23.6336C14.4036 23.7454 14.2919 23.8412 14.212 23.9849C14.1801 24.0328 14.1482 24.0807 14.1162 24.1286C13.9885 24.2244 13.9086 24.3522 13.8288 24.4799C13.7968 24.5278 13.7489 24.5917 13.717 24.6396C13.701 24.6556 13.6851 24.6875 13.6691 24.7035C13.6372 24.7514 13.5893 24.7993 13.5573 24.8632C13.5413 24.8792 13.5254 24.9111 13.5254 24.9271C13.4775 24.9909 13.4615 25.0708 13.4136 25.1506C13.3976 25.1826 13.3817 25.1985 13.3657 25.2305C13.1741 25.5339 13.0623 25.8692 12.9186 26.2046C12.9026 26.2365 12.9026 26.2684 12.8866 26.2844C12.8387 26.3962 12.8068 26.508 12.7749 26.6357C12.7749 26.6676 12.7589 26.6996 12.7429 26.7315C12.6471 27.0349 12.5832 27.3383 12.5353 27.6577C12.5353 27.7535 12.5194 27.8493 12.4874 27.9451C12.4076 28.52 12.4076 29.0789 12.4076 29.6538C12.4076 33.7896 12.4076 37.9415 12.4076 42.0773C12.4076 42.237 12.4235 42.3807 12.3597 42.5404C12.2639 42.7161 12.1042 42.764 11.9125 42.7799C11.4016 42.7959 10.8906 42.7959 10.3636 42.7799C10.2358 42.7799 10.1081 42.732 9.99632 42.6522C9.8526 42.5085 9.86857 42.3328 9.86857 42.1572C9.88454 37.6221 9.86857 33.087 9.86857 28.5519C9.86857 28.504 9.86857 28.4561 9.88454 28.4242C9.91648 28.2964 9.94841 28.1527 9.94841 28.025C9.94841 27.7216 10.0123 27.4501 10.0762 27.1627C10.3157 25.981 10.6989 24.8472 11.3057 23.8093C11.4495 23.6017 11.6091 23.3941 11.7209 23.1705C12.9665 21.382 14.5633 19.9928 16.5913 19.1624C17.1982 18.9069 17.805 18.6993 18.4437 18.5875C18.5555 18.5556 18.6673 18.5556 18.779 18.5237C18.8269 18.5077 18.8749 18.5077 18.9228 18.4917C19.0186 18.4917 19.1144 18.4758 19.2102 18.4438C19.3379 18.4278 19.4657 18.3959 19.5775 18.364C20.344 18.332 21.1264 18.3161 21.8929 18.364C22.1644 18.4278 22.4518 18.4438 22.7233 18.4917C23.1065 18.6035 23.5057 18.6354 23.889 18.7632C24.0167 18.8111 24.1285 18.875 24.2563 18.8909C24.2882 18.8909 24.3201 18.9069 24.3521 18.9229C24.6555 19.0506 24.9908 19.1464 25.2942 19.2902C25.9489 19.5616 26.5398 19.9768 27.1306 20.376C27.8971 20.9669 28.5997 21.6216 29.2225 22.3721C29.6536 22.8991 30.0209 23.458 30.3722 24.0488C30.6916 24.6396 30.9311 25.2624 31.1547 25.8852C31.2824 26.3483 31.4102 26.7954 31.506 27.2585C31.8094 29.5739 31.6178 31.8894 31.6497 34.2048C31.6817 36.1051 31.6657 38.0053 31.6497 39.9056C31.6497 39.9535 31.6497 40.0174 31.6497 40.0653C31.6338 40.225 31.7136 40.3048 31.8733 40.2888C32.8953 40.2888 33.9013 40.2569 34.9233 40.2888C35.2746 40.2888 35.6419 40.2729 35.9932 40.2888C36.5521 40.2888 37.1269 40.2888 37.6858 40.2888C38.4523 40.2729 39.2029 40.2888 39.9694 40.2888C40.4484 40.2888 40.9275 40.209 41.4065 40.0972C42.3327 39.8896 43.195 39.5224 44.0094 39.0433C44.0893 38.9954 44.1691 38.9475 44.2489 38.8996C44.4406 38.7878 44.6162 38.6441 44.7759 38.5004C45.0154 38.3087 45.2709 38.1331 45.4785 37.8936C45.8458 37.5263 46.229 37.1909 46.5324 36.7598C46.7081 36.5362 46.8838 36.3286 46.9955 36.0572C48.0974 34.4763 48.4966 32.7197 48.4646 30.8195C48.4806 30.4203 48.4008 30.021 48.3688 29.6218C48.257 28.7755 48.0016 27.9771 47.6502 27.1946C47.5544 26.9551 47.4427 26.7315 47.3149 26.508C46.5644 25.2305 45.5743 24.1925 44.3767 23.3462C44.1851 23.2025 43.9455 23.1226 43.7539 22.9789C43.69 22.8991 43.5942 22.8511 43.4984 22.8192C43.179 22.6595 42.8756 22.4998 42.5243 22.3881C42.4605 22.3561 42.3806 22.3242 42.3167 22.3082C42.2369 22.2922 42.173 22.2603 42.0932 22.2284C41.8536 22.1326 41.6141 22.0687 41.3586 22.0367C40.7838 21.925 40.2249 21.7813 39.634 21.8132C39.0911 21.8292 38.5482 21.8292 38.0212 21.8132C37.0471 21.8132 36.089 21.8132 35.1149 21.8132C34.045 21.8132 32.9591 21.8132 31.8892 21.8132C31.3623 21.8132 31.2345 21.7014 31.2505 21.1744C31.2505 20.6315 31.2186 20.0726 31.3144 19.5297C31.4741 19.3061 31.6976 19.3061 31.9372 19.2902C32.7036 19.2902 33.4542 19.2902 34.2207 19.2902C35.7696 19.3061 37.3186 19.3061 38.8835 19.2902C39.4424 19.2902 40.0013 19.354 40.5602 19.354C40.8955 19.354 41.1989 19.4498 41.5183 19.4977C41.7578 19.5457 41.9974 19.5936 42.2369 19.6415C42.4285 19.7213 42.6201 19.7692 42.8277 19.8331C42.8597 19.8491 42.8916 19.8491 42.9235 19.865C43.1152 19.9129 43.2908 19.9928 43.4824 20.0566C43.69 20.1205 43.8817 20.2163 44.0573 20.3121C44.1052 20.3441 44.1531 20.36 44.217 20.392C44.2809 20.4239 44.3447 20.4399 44.4086 20.4718C44.4885 20.5197 44.5523 20.5676 44.6322 20.5996C44.9516 20.7752 45.3029 20.9349 45.5903 21.1744C45.6542 21.2224 45.734 21.2703 45.8139 21.3182C45.8618 21.3501 45.9097 21.382 45.9576 21.414C46.261 21.6375 46.5484 21.8611 46.8358 22.1006C46.8678 22.1326 46.8997 22.1485 46.9317 22.1805C46.9955 22.2443 47.0754 22.3242 47.1393 22.3881C47.2351 22.4839 47.3149 22.5637 47.4107 22.6595C47.5864 22.8352 47.7461 23.0108 47.9217 23.1705C47.9537 23.2025 47.9856 23.2344 48.0175 23.2663C48.9756 24.3522 49.7102 25.5658 50.2372 26.9231C50.5086 27.6258 50.6683 28.3603 50.7961 29.0949C50.812 29.2066 50.844 29.3184 50.7801 29.4142C50.7801 29.4621 50.7801 29.51 50.7801 29.542C50.9557 29.7336 50.8599 29.9572 50.9398 30.1648Z" fill="white"/>
</g>
<defs>
<clipPath id="clip0_6_7">
<rect width="61" height="61" fill="white"/>
</clipPath>
</defs>
</svg>
